<svg width="676" height="676" viewBox="0 0 676 676" fill="none" xmlns="http://www.w3.org/2000/svg">
<g clip-path="url(#clip0_2_16)">
<path d="M144.73 2.23996C77.3903 14.28 23.2103 64.12 6.13028 129.64C-0.0297227 153.3 -0.449723 167.16 0.250277 350.7C0.670277 519.26 0.810277 523.18 3.61028 536.2C19.1503 606.34 68.9903 656.32 139.83 672.84C149.07 674.94 160.83 675.36 236.57 675.78C314.97 676.34 323.09 676.2 325.19 674.1C327.29 672 327.43 644.98 327.43 338.66C327.43 111.58 327.01 4.62 326.03 2.66C324.63 0.140004 322.25 -1.58697e-05 240.21 0.139984C173.57 0.279984 153.55 0.69996 144.73 2.23996ZM271.43 338.24V621.88L214.45 621.18C161.95 620.62 156.35 620.34 145.85 617.68C100.77 606.06 67.3103 571.34 57.9303 526.12C54.8503 511.98 54.8503 163.66 57.7903 149.8C66.1903 110.46 93.4903 77.84 130.31 63.14C148.79 55.72 157.33 54.88 217.25 54.74L271.43 54.6V338.24Z" fill="white"/>
<path d="M156.77 140.14C147.95 141.82 134.51 148.54 127.37 154.84C112.67 167.58 105.39 185.64 106.51 206.92C107.07 217.98 107.77 220.92 112.25 229.88C118.83 243.46 128.77 253.4 142.35 260.12C151.73 264.74 154.11 265.3 166.29 265.72C177.35 266.14 181.27 265.72 188.69 263.2C219.07 252.98 237.41 223.44 232.23 193.2C226.21 157.22 192.05 133.14 156.77 140.14Z" fill="white"/>
<path d="M395.61 0.97998C395.05 1.39998 394.63 153.16 394.63 338.24C394.63 643.58 394.77 674.52 396.87 675.36C400.65 676.76 509.29 676.2 522.73 674.8C579.57 668.36 629.69 633.78 656.99 582.4C660.49 575.82 665.11 564.76 667.49 557.9C676.31 531.58 676.03 538.58 676.03 337.4C676.03 176.82 675.75 152.88 673.79 142.66C659.93 69.72 604.35 14.7 531.27 2.10004C521.47 0.420037 506.35 0 457.63 0C424.03 0 396.03 0.41998 395.61 0.97998ZM545.13 305.9C566.97 311.64 584.89 328.3 592.17 349.58C596.79 362.74 596.65 382.06 592.03 394.1C583.49 416.22 566.69 431.76 545.13 437.5C510.13 446.6 472.89 425.46 462.67 390.74C459.59 380.1 459.73 362.18 463.23 351.26C473.73 316.96 510.13 296.8 545.13 305.9Z" fill="white"/>
</g>
<defs>
<clipPath id="clip0_2_16">
<rect width="676" height="676" fill="white"/>
</clipPath>
</defs>
</svg>
