<?xml version="1.0" encoding="iso-8859-1"?>
<!-- Generator: Adobe Illustrator 18.1.1, SVG Export Plug-In . SVG Version: 6.00 Build 0)  -->
<svg version="1.1" id="Capa_1" xmlns="http://www.w3.org/2000/svg" xmlns:xlink="http://www.w3.org/1999/xlink" x="0px" y="0px"
	 viewBox="0 0 26 26" style="enable-background:new 0 0 26 26;" xml:space="preserve">
<g>
	<g>
		<path style="fill:#fff;" d="M23,0H3C1.344,0,0,1.344,0,3v14c0,1.656,1.344,3,3,3h7v1c0,0.551,0.449,1,1,1h4
			c0.551,0,1-0.516,1-1c0-0.209,0-0.611,0-1h7c1.656,0,3-1.344,3-3V3C26,1.344,24.656,0,23,0z M23.275,18.725
			c-0.399,0-0.725-0.324-0.725-0.725s0.324-0.725,0.725-0.725S24,17.6,24,18S23.676,18.725,23.275,18.725z M24,15
			c0,0.551-0.449,1-1,1H3c-0.551,0-1-0.449-1-1V3c0-0.551,0.449-1,1-1h20c0.551,0,1,0.449,1,1V15z"/>
		<path style="fill:#fff;" d="M17.877,23H8.124c-1.154,0-2.09,0.936-2.09,2.09V26h13.934v-0.91
			C19.967,23.936,19.031,23,17.877,23z"/>
	</g>
</g>
</svg>
